ffmpeg version 4.2.2-static https://johnvansickle.com/ffmpeg/  Copyright (c) 2000-2019 the FFmpeg developers
  built with gcc 8 (Debian 8.3.0-6)
  configuration: --enable-gpl --enable-version3 --enable-static --disable-debug --disable-ffplay --disable-indev=sndio --disable-outdev=sndio --cc=gcc --enable-fontconfig --enable-frei0r --enable-gnutls --enable-gmp --enable-libgme --enable-gray --enable-libaom --enable-libfribidi --enable-libass --enable-libvmaf --enable-libfreetype --enable-libmp3lame --enable-libopencore-amrnb --enable-libopencore-amrwb --enable-libopenjpeg --enable-librubberband --enable-libsoxr --enable-libspeex --enable-libsrt --enable-libvorbis --enable-libopus --enable-libtheora --enable-libvidstab --enable-libvo-amrwbenc --enable-libvpx --enable-libwebp --enable-libx264 --enable-libx265 --enable-libxml2 --enable-libdav1d --enable-libxvid --enable-libzvbi --enable-libzimg
  libavutil      56. 31.100 / 56. 31.100
  libavcodec     58. 54.100 / 58. 54.100
  libavformat    58. 29.100 / 58. 29.100
  libavdevice    58.  8.100 / 58.  8.100
  libavfilter     7. 57.100 /  7. 57.100
  libswscale      5.  5.100 /  5.  5.100
  libswresample   3.  5.100 /  3.  5.100
  libpostproc    55.  5.100 / 55.  5.100
Guessed Channel Layout for Input Stream #0.0 : stereo
Input #0, s16le, from 'pipe:':
  Duration: N/A, bitrate: 1411 kb/s
    Stream #0:0: Audio: pcm_s16le, 44100 Hz, stereo, s16, 1411 kb/s
Stream mapping:
  Stream #0:0 -> #0:0 (pcm_s16le (native) -> mp3 (libmp3lame))
Output #0, wav, to '0e783c8b-c630-4340-9a04-0966a6b5a0c7_Docker_compose_группы_контейнеров._Docker-4KbL5lbjK-M.mp4.wav':
  Metadata:
    ISFT            : Lavf58.29.100
    Stream #0:0: Audio: mp3 (libmp3lame) (U[0][0][0] / 0x0055), 44100 Hz, stereo, s16p
    Metadata:
      encoder         : Lavc58.54.100 libmp3lame
size=       0kB time=00:00:04.91 bitrate=   0.2kbits/s speed=9.81x    size=       0kB time=00:00:13.76 bitrate=   0.1kbits/s speed=13.8x    size=     256kB time=00:00:18.13 bitrate= 115.7kbits/s speed=12.1x    size=     256kB time=00:00:23.51 bitrate=  89.2kbits/s speed=11.7x    size=     512kB time=00:00:35.52 bitrate= 118.1kbits/s speed=14.2x    size=     512kB time=00:00:46.60 bitrate=  90.0kbits/s speed=15.5x    size=     768kB time=00:00:57.73 bitrate= 109.0kbits/s speed=16.5x    size=    1024kB time=00:01:09.01 bitrate= 121.6kbits/s speed=17.2x    size=    1280kB time=00:01:23.72 bitrate= 125.3kbits/s speed=18.6x    size=    1536kB time=00:01:40.72 bitrate= 124.9kbits/s speed=20.1x    size=    1792kB time=00:02:01.26 bitrate= 121.1kbits/s speed=  22x    size=    2048kB time=00:02:21.97 bitrate= 118.2kbits/s speed=23.6x    size=    2304kB time=00:02:42.97 bitrate= 115.8kbits/s speed=  25x    size=    2816kB time=00:03:01.60 bitrate= 127.0kbits/s speed=25.9x    size=    3072kB time=00:03:22.47 bitrate= 124.3kbits/s speed=  27x    size=    3328kB time=00:03:42.19 bitrate= 122.7kbits/s speed=27.7x    size=    3584kB time=00:04:02.07 bitrate= 121.3kbits/s speed=28.5x    size=    3840kB time=00:04:21.95 bitrate= 120.1kbits/s speed=29.1x    size=    4352kB time=00:04:43.69 bitrate= 125.7kbits/s speed=29.8x    size=    4608kB time=00:05:05.08 bitrate= 123.7kbits/s speed=30.5x    size=    4864kB time=00:05:24.52 bitrate= 122.8kbits/s speed=30.9x    size=    5376kB time=00:05:46.54 bitrate= 127.1kbits/s speed=31.5x    size=    5632kB time=00:06:06.96 bitrate= 125.7kbits/s speed=31.9x    size=    5888kB time=00:06:27.97 bitrate= 124.3kbits/s speed=32.3x    size=    6144kB time=00:06:47.17 bitrate= 123.6kbits/s speed=32.5x    size=    6656kB time=00:07:08.14 bitrate= 127.4kbits/s speed=32.9x    size=    6912kB time=00:07:28.65 bitrate= 126.2kbits/s speed=33.2x    size=    7168kB time=00:07:49.23 bitrate= 125.1kbits/s speed=33.5x    size=    7424kB time=00:08:07.99 bitrate= 124.6kbits/s speed=33.6x    size=    7936kB time=00:08:29.67 bitrate= 127.6kbits/s speed=  34x    size=    8192kB time=00:08:49.65 bitrate= 126.7kbits/s speed=34.1x    size=    8448kB time=00:09:06.16 bitrate= 126.7kbits/s speed=34.1x    size=    8704kB time=00:09:23.88 bitrate= 126.5kbits/s speed=34.1x    size=    8960kB time=00:09:45.87 bitrate= 125.3kbits/s speed=34.4x    size=    9472kB time=00:10:06.27 bitrate= 128.0kbits/s speed=34.6x    size=    9728kB time=00:10:27.54 bitrate= 127.0kbits/s speed=34.8x    size=    9984kB time=00:10:48.56 bitrate= 126.1kbits/s speed=  35x    size=   10240kB time=00:11:09.44 bitrate= 125.3kbits/s speed=35.2x    size=   10496kB time=00:11:27.59 bitrate= 125.1kbits/s speed=35.2x    size=   11008kB time=00:11:45.04 bitrate= 127.9kbits/s speed=35.2x    size=   11264kB time=00:12:05.44 bitrate= 127.2kbits/s speed=35.4x    size=   11520kB time=00:12:24.88 bitrate= 126.7kbits/s speed=35.4x    size=   11776kB time=00:12:39.53 bitrate= 127.0kbits/s speed=35.3x    size=   12032kB time=00:12:54.76 bitrate= 127.2kbits/s speed=35.2x    size=   12032kB time=00:13:03.77 bitrate= 125.8kbits/s speed=34.8x    size=   12288kB time=00:13:13.39 bitrate= 126.9kbits/s speed=34.5x    size=   12288kB time=00:13:17.28 bitrate= 126.3kbits/s speed=33.9x    size=   12544kB time=00:13:24.83 bitrate= 127.7kbits/s speed=33.5x    size=   12544kB time=00:13:37.21 bitrate= 125.7kbits/s speed=33.3x    size=   12800kB time=00:13:48.89 bitrate= 126.5kbits/s speed=33.1x    size=   13056kB time=00:14:03.33 bitrate= 126.8kbits/s speed=  33x    size=   13312kB time=00:14:17.75 bitrate= 127.1kbits/s speed=  33x    size=   13568kB time=00:14:30.76 bitrate= 127.6kbits/s speed=32.8x    size=   13568kB time=00:14:44.16 bitrate= 125.7kbits/s speed=32.7x    size=   14080kB time=00:15:04.56 bitrate= 127.5kbits/s speed=32.9x    size=   14336kB time=00:15:24.84 bitrate= 127.0kbits/s speed=  33x    size=   14592kB time=00:15:46.15 bitrate= 126.3kbits/s speed=33.2x    size=   14848kB time=00:16:06.21 bitrate= 125.9kbits/s speed=33.3x    size=   15360kB time=00:16:27.37 bitrate= 127.4kbits/s speed=33.4x    size=   15616kB time=00:16:49.39 bitrate= 126.7kbits/s speed=33.6x    size=   15872kB time=00:17:09.66 bitrate= 126.3kbits/s speed=33.7x    size=   16384kB time=00:17:31.48 bitrate= 127.6kbits/s speed=33.9x    size=   16640kB time=00:17:51.33 bitrate= 127.2kbits/s speed=  34x    size=   16896kB time=00:18:13.69 bitrate= 126.6kbits/s speed=34.1x    size=   17408kB time=00:18:35.14 bitrate= 127.9kbits/s speed=34.3x    size=   17664kB time=00:18:54.65 bitrate= 127.5kbits/s speed=34.4x    size=   17920kB time=00:19:15.97 bitrate= 127.0kbits/s speed=34.5x    size=   18176kB time=00:19:37.75 bitrate= 126.4kbits/s speed=34.6x    size=   18688kB time=00:19:57.97 bitrate= 127.8kbits/s speed=34.7x    size=   18944kB time=00:20:19.50 bitrate= 127.3kbits/s speed=34.8x    size=   19200kB time=00:20:40.29 bitrate= 126.8kbits/s speed=34.9x    size=   19712kB time=00:21:02.23 bitrate= 127.9kbits/s speed=  35x    size=   19968kB time=00:21:22.16 bitrate= 127.6kbits/s speed=35.1x    size=   20224kB time=00:21:43.61 bitrate= 127.1kbits/s speed=35.2x    size=   20480kB time=00:22:04.46 bitrate= 126.7kbits/s speed=35.3x    size=   20992kB time=00:22:26.40 bitrate= 127.7kbits/s speed=35.4x    size=   21079kB time=00:22:29.04 bitrate= 128.0kbits/s speed=35.4x    
video:0kB audio:21079kB subtitle:0kB other streams:0kB global headers:0kB muxing overhead: 0.000482%
